Coordinates
version=1
nRows=5
nColumns=40
inDegrees=yes

Units are S.I. units (second, meters, Newtons, ...)
If the header above contains a line with 'inDegrees', this indicates whether rotational values are in degrees (yes) or radians (no).

endheader
time	pelvis_tilt	pelvis_list	pelvis_rotation	pelvis_tx	pelvis_ty	pelvis_tz	hip_flexion_r	hip_adduction_r	hip_rotation_r	knee_angle_r	knee_angle_r_beta	ankle_angle_r	subtalar_angle_r	mtp_angle_r	hip_flexion_l	hip_adduction_l	hip_rotation_l	knee_angle_l	knee_angle_l_beta	ankle_angle_l	subtalar_angle_l	mtp_angle_l	lumbar_extension	lumbar_bending	lumbar_rotation	arm_flex_r	arm_add_r	arm_rot_r	elbow_flex_r	pro_sup_r	wrist_flex_r	wrist_dev_r	arm_flex_l	arm_add_l	arm_rot_l	elbow_flex_l	pro_sup_l	wrist_flex_l	wrist_dev_l
      3.82000000	    -23.65976871	     -1.99573773	      6.11111385	     -0.40665569	      0.60736974	     -0.88740428	     92.16281404	    -23.41043956	     -1.68953397	    107.96752842	      1.88438886	     41.70129827	      0.00000000	      0.00000000	     97.56558354	    -25.63749495	     -1.76978997	    105.15779476	      1.83534975	     31.07771492	      0.00000000	      0.00000000	    -30.53323668	     -0.31924156	      0.19308899	     36.37439965	    -55.64959355	     89.70300320	    114.15002676	     88.70688644	      0.00000000	      0.00000000	     30.71865355	    -60.16467584	     89.71165955	    111.76217051	     88.74087883	      0.00000000	      0.00000000
      3.82500000	    -23.65533443	     -1.98789960	      5.96635075	     -0.40598987	      0.61100101	     -0.88724629	     91.69340479	    -23.18122545	     -1.87875069	    107.39379324	      1.87437529	     41.58995681	      0.00000000	      0.00000000	     97.03219044	    -25.65620898	     -1.90135461	    104.62486465	      1.82604837	     31.01168802	      0.00000000	      0.00000000	    -30.57540760	     -0.36784146	      0.32545310	     36.38733230	    -55.54435228	     89.69704161	    113.93159997	     88.70226385	      0.00000000	      0.00000000	     30.83531157	    -60.08246626	     89.70127417	    111.57214438	     88.73371577	      0.00000000	      0.00000000
      3.83000000	    -23.96966942	     -2.03321511	      5.77009188	     -0.40588745	      0.61318012	     -0.88706757	     91.70043587	    -22.90499460	     -2.01498204	    106.94595398	      1.86655902	     41.55271684	      0.00000000	      0.00000000	     97.02932400	    -25.71879392	     -1.96007947	    104.24667684	      1.81944775	     31.04105441	      0.00000000	      0.00000000	    -30.13558177	     -0.40824622	      0.54111607	     36.43830625	    -55.52384313	     89.70647633	    113.71136267	     88.70059769	      0.00000000	      0.00000000	     30.97428043	    -59.97567755	     89.71277796	    111.37780394	     88.73275049	      0.00000000	      0.00000000
      3.83500000	    -23.80315046	     -1.92853273	      5.82548103	     -0.40463976	      0.61726801	     -0.88768734	     91.03849746	    -22.99763531	     -2.12079982	    106.44497818	      1.85781534	     41.48659641	      0.00000000	      0.00000000	     96.20490711	    -25.53703868	     -2.26060184	    103.76993206	      1.81112698	     31.06659030	      0.00000000	      0.00000000	    -30.24978456	     -0.39925793	      0.56835507	     36.37403301	    -55.43534812	     89.70277511	    113.29690700	     88.69870405	      0.00000000	      0.00000000	     31.19872967	    -59.60893470	     89.71706025	    110.82605494	     88.73758769	      0.00000000	      0.00000000
      3.84000000	    -23.91338323	     -1.85238001	      5.77397943	     -0.40404009	      0.62049962	     -0.88799176	     90.76713035	    -22.95088384	     -2.20258388	    105.90497530	      1.84839051	     41.39535732	      0.00000000	      0.00000000	     95.78097879	    -25.40257708	     -2.48835415	    103.27554499	      1.80249830	     31.03420234	      0.00000000	      0.00000000	    -30.06090580	     -0.44427733	      0.62191100	     36.37496506	    -55.43784141	     89.69908497	    113.14115558	     88.69626845	      0.00000000	      0.00000000	     31.31240965	    -59.49912353	     89.71148826	    110.63879071	     88.73421966	      0.00000000	      0.00000000
